<svg xmlns="http://www.w3.org/2000/svg" x="0px" y="0px"
width="30" height="30"
viewBox="0 0 48 48"
style=" fill:#fed053;"><path d="M 19.835938 6.9882812 C 18.261657 6.9882812 16.845244 7.7095399 15.527344 8.6660156 C 14.209443 9.6224914 12.976155 10.867402 11.884766 12.191406 C 10.793376 13.515411 9.8504374 14.914822 9.15625 16.210938 C 8.6401612 17.174525 8.2313312 18.026687 8.0546875 18.910156 L 4.5273438 16.123047 C 4.1412601 15.817916 3.6805777 15.639463 3.2070312 15.595703 C 2.7341221 15.552002 2.2488184 15.64287 1.8125 15.873047 C 0.94163556 16.332162 0.41798253 17.271018 0.48242188 18.25 C 0.6108956 20.177106 0.98533503 23.010233 2.1835938 25.679688 C 3.2898411 28.144161 5.2336341 30.516197 8.2675781 31.519531 C 9.7402484 37.260703 16.148437 39.806641 16.148438 39.806641 L 16.199219 39.826172 L 16.251953 39.84375 C 17.524939 40.265761 18.057677 40.839373 19.097656 41.578125 C 20.137635 42.316877 21.662213 43.015625 23.986328 43.015625 C 26.310443 43.015625 27.836974 42.316877 28.876953 41.578125 C 29.916932 40.839373 30.44967 40.265761 31.722656 39.84375 L 31.775391 39.826172 L 31.826172 39.806641 C 31.826172 39.806641 38.300053 37.230898 39.726562 31.423828 C 42.746077 30.41565 44.681958 28.049479 45.785156 25.591797 C 46.983415 22.922343 47.357854 20.089215 47.486328 18.162109 C 47.550738 17.183608 47.028297 16.244517 46.158203 15.785156 C 46.158203 15.785156 46.15625 15.785156 46.15625 15.785156 C 45.719932 15.554979 45.234628 15.464112 44.761719 15.507812 C 44.288172 15.551573 43.82749 15.728073 43.441406 16.033203 L 43.441406 16.035156 L 39.898438 18.833984 C 39.713878 17.977698 39.319531 17.146673 38.818359 16.210938 C 38.124183 14.914822 37.181233 13.515411 36.089844 12.191406 C 34.998454 10.867402 33.765166 9.6224914 32.447266 8.6660156 C 31.129365 7.7095399 29.712951 6.9882813 28.138672 6.9882812 L 23.986328 6.9882812 L 19.835938 6.9882812 z M 19.835938 9.9882812 L 23.986328 9.9882812 L 28.138672 9.9882812 C 28.704892 9.9882812 29.654463 10.346851 30.683594 11.09375 C 31.712725 11.840649 32.807655 12.925614 33.775391 14.099609 C 34.743126 15.273605 35.591234 16.541147 36.173828 17.628906 C 36.756422 18.716666 37.015625 19.721179 37.015625 19.841797 L 37.015625 21.771484 C 37.007625 21.855684 37.002087 21.931044 36.998047 22.017578 C 36.989947 22.190645 36.984789 22.404558 36.980469 22.666016 C 36.971869 23.18893 36.968546 23.894594 36.972656 24.710938 C 36.977136 25.60296 36.99263 26.624839 37.015625 27.671875 L 37.015625 29.130859 C 37.015625 34.248782 30.685205 37.029921 30.677734 37.033203 C 30.677734 37.033203 30.675781 37.035156 30.675781 37.035156 C 28.903821 37.646953 27.899285 38.59251 27.138672 39.132812 C 26.362651 39.684061 25.813213 40.015625 23.986328 40.015625 C 22.159443 40.015625 21.610005 39.684061 20.833984 39.132812 C 20.073117 38.592329 19.069873 37.646933 17.296875 37.035156 L 17.289062 37.03125 C 17.26437 37.020386 10.958984 34.241789 10.958984 29.130859 L 10.958984 27.560547 C 10.979274 26.58354 10.991897 25.63417 10.996094 24.798828 C 11.000194 23.982408 10.997047 23.275085 10.988281 22.751953 C 10.983881 22.490387 10.978883 22.276944 10.970703 22.103516 C 10.967612 22.03814 10.963607 21.979126 10.958984 21.917969 L 10.958984 19.841797 C 10.958984 19.721179 11.218187 18.716666 11.800781 17.628906 C 12.383375 16.541147 13.231483 15.273605 14.199219 14.099609 C 15.166954 12.925614 16.259932 11.840649 17.289062 11.09375 C 18.318193 10.346851 19.269717 9.9882813 19.835938 9.9882812 z M 18.701172 18.986328 C 15.414463 18.959516 13.465188 20.172547 12.476562 21.068359 C 12.253562 21.270359 12.137109 21.565234 12.162109 21.865234 C 12.188109 22.165234 12.351469 22.437609 12.605469 22.599609 L 12.640625 22.619141 C 13.018625 22.860141 13.50975 22.818531 13.84375 22.519531 C 14.746253 21.709592 16.975453 20.39659 21.328125 21.287109 C 21.176804 21.45289 21.024401 21.619718 20.902344 21.804688 C 20.241344 22.793688 19.971047 23.779406 19.998047 24.816406 C 19.717047 24.979406 17.744594 26.233062 16.433594 29.039062 C 15.708594 30.580063 15.252266 32.220094 15.072266 33.871094 C 15.064266 33.945094 15.111594 34.012297 15.183594 34.029297 C 15.255594 34.046297 15.329469 34.0065 15.355469 33.9375 C 15.929469 32.4055 16.647 30.955813 17.5 29.632812 C 18.555 28.021812 19.881937 26.639859 21.460938 25.755859 L 21.873047 25.523438 L 21.900391 24.976562 C 21.941391 24.180562 22.134719 23.443578 22.511719 22.892578 C 22.701719 22.617578 22.941891 22.391469 23.212891 22.230469 C 23.438114 22.088949 23.698453 22.014938 23.892578 21.994141 L 23.945312 22.011719 L 24.052734 21.986328 C 24.248356 21.99736 24.535989 22.08004 24.775391 22.230469 C 25.045391 22.391469 25.286562 22.615625 25.476562 22.890625 C 25.852562 23.441625 26.048891 24.179562 26.087891 24.976562 L 26.113281 25.521484 L 26.527344 25.753906 C 28.107344 26.637906 29.433281 28.019859 30.488281 29.630859 C 31.341281 30.953859 32.055906 32.401641 32.628906 33.931641 C 32.654906 34.000641 32.728781 34.040438 32.800781 34.023438 C 32.872781 34.006437 32.920109 33.937281 32.912109 33.863281 C 32.730109 32.213281 32.272781 30.579969 31.550781 29.042969 C 30.241781 26.243969 28.985609 25.052656 27.974609 24.722656 C 27.999609 23.685656 27.743031 22.793688 27.082031 21.804688 C 26.992309 21.668997 26.875354 21.549762 26.769531 21.423828 C 29.984656 20.836855 32.412451 20.830993 34.132812 22.509766 C 34.486813 22.855766 35.038594 22.89175 35.433594 22.59375 C 35.666594 22.41775 35.810125 22.148422 35.828125 21.857422 C 35.846125 21.566422 35.737297 21.282125 35.529297 21.078125 C 32.502297 18.120125 28.056875 19.0385 24.046875 19.9375 C 21.965312 19.265937 20.195131 18.998516 18.701172 18.986328 z M 44.333984 19.152344 C 44.15163 20.755372 43.822482 22.639753 43.048828 24.363281 C 42.379236 25.854984 41.334857 26.951704 40.037109 27.775391 C 40.029221 27.420189 40.024674 27.104099 40.015625 26.748047 L 40.015625 22.564453 L 44.333984 19.152344 z M 3.6347656 19.240234 L 7.9589844 22.658203 L 7.9589844 26.556641 C 7.9478071 27.00568 7.9417405 27.411543 7.9316406 27.863281 C 6.6338883 27.039595 5.5914672 25.942874 4.921875 24.451172 C 4.1482213 22.727643 3.8171201 20.843263 3.6347656 19.240234 z M 17.5 22 C 16.672 22 16 22.672 16 23.5 C 16 24.328 16.672 25 17.5 25 C 18.328 25 19 24.328 19 23.5 C 19 22.672 18.328 22 17.5 22 z M 30.5 22 C 29.672 22 29 22.672 29 23.5 C 29 24.328 29.672 25 30.5 25 C 31.328 25 32 24.328 32 23.5 C 32 22.672 31.328 22 30.5 22 z M 23 25 C 22.448 25 22 25.224 22 25.5 C 22 25.776 22.448 26 23 26 C 23.552 26 24 25.776 24 25.5 C 24 25.224 23.552 25 23 25 z M 24 25.5 C 24 25.776 24.448 26 25 26 C 25.552 26 26 25.776 26 25.5 C 26 25.224 25.552 25 25 25 C 24.448 25 24 25.224 24 25.5 z M 23.992188 29.974609 C 17.889187 29.964609 17.787063 31.786438 17.664062 32.273438 C 17.560063 32.688437 17.465813 33.099719 17.382812 33.511719 C 17.282812 34.009719 17.196047 34.869297 17.123047 35.654297 C 17.116047 35.728297 17.165281 35.7965 17.238281 35.8125 C 17.311281 35.8285 17.384203 35.787797 17.408203 35.716797 C 18.021203 33.903797 18.802188 31.978516 19.992188 31.978516 C 20.992188 31.978516 21.992187 31.974609 23.992188 31.974609 C 25.992188 31.974609 26.992188 31.978516 27.992188 31.978516 C 29.183187 31.978516 29.961219 33.903797 30.574219 35.716797 C 30.598219 35.787797 30.671141 35.8275 30.744141 35.8125 C 30.817141 35.7975 30.868328 35.729297 30.861328 35.654297 C 30.788328 34.869297 30.701563 34.009719 30.601562 33.511719 C 30.517563 33.099719 30.422359 32.688437 30.318359 32.273438 C 30.195359 31.786438 30.095188 29.964609 23.992188 29.974609 z"></path></svg>